HIERARCHY
ROOT Hips
{
    OFFSET   0.000000   0.000000   0.000000
    CHANNELS 6 Xposition Yposition Zposition Zrotation Xrotation Yrotation
    JOINT Chest
    {
        OFFSET   0.000000   8.007230   0.000000
        CHANNELS 3 Zrotation Xrotation Yrotation
        JOINT Chest2
        {
            OFFSET   0.000000  22.077100   0.000000
            CHANNELS 3 Zrotation Xrotation Yrotation
            JOINT Neck
            {
                OFFSET   0.000000  23.255100   0.000000
                CHANNELS 3 Zrotation Xrotation Yrotation
                JOINT Head
                {
                    OFFSET   0.000000  14.370100   1.956600
                    CHANNELS 3 Zrotation Xrotation Yrotation
                    End Site
                    {
                        OFFSET   0.000000  19.566000   0.000000
                    }
                }
            }
            JOINT LeftCollar
            {
                OFFSET   3.911900  19.017000  -0.467063
                CHANNELS 3 Zrotation Xrotation Yrotation
                JOINT LeftShoulder
                {
                    OFFSET  10.383700   0.000000   0.000000
                    CHANNELS 3 Zrotation Xrotation Yrotation
                    JOINT LeftElbow
                    {
                        OFFSET  26.662100   0.001193   0.000980
                        CHANNELS 3 Zrotation Xrotation Yrotation
                        JOINT LeftWrist
                        {
                            OFFSET  28.869000  -0.000059  -0.000082
                            CHANNELS 3 Zrotation Xrotation Yrotation
                            JOINT LeftFinger0
                            {
                                OFFSET   2.044650  -2.323450   3.252850
                                CHANNELS 3 Zrotation Xrotation Yrotation
                                JOINT LeftFinger01
                                {
                                    OFFSET   3.088130   0.000000   0.000000
                                    CHANNELS 3 Zrotation Xrotation Yrotation
                                    JOINT LeftFinger02
                                    {
                                        OFFSET   2.639460   0.000000   0.000000
                                        CHANNELS 3 Zrotation Xrotation Yrotation
                                        End Site
                                        {
                                            OFFSET   2.582190   0.000000   0.000000
                                        }
                                    }
                                }
                            }
                            JOINT LeftFinger1
                            {
                                OFFSET   8.364480   0.000000   3.252850
                                CHANNELS 3 Zrotation Xrotation Yrotation
                                JOINT LeftFinger11
                                {
                                    OFFSET   4.646930   0.000000   0.000000
                                    CHANNELS 3 Zrotation Xrotation Yrotation
                                    JOINT LeftFinger12
                                    {
                                        OFFSET   2.323470   0.000000   0.000000
                                        CHANNELS 3 Zrotation Xrotation Yrotation
                                        End Site
                                        {
                                            OFFSET   2.273050   0.000000   0.000000
                                        }
                                    }
                                }
                            }
                            JOINT LeftFinger2
                            {
                                OFFSET   8.364490   0.000016   1.078090
                                CHANNELS 3 Zrotation Xrotation Yrotation
                                JOINT LeftFinger21
                                {
                                    OFFSET   5.111610   0.000000   0.000000
                                    CHANNELS 3 Zrotation Xrotation Yrotation
                                    JOINT LeftFinger22
                                    {
                                        OFFSET   2.788150   0.000016   0.000000
                                        CHANNELS 3 Zrotation Xrotation Yrotation
                                        End Site
                                        {
                                            OFFSET   2.727660   0.000000   0.000000
                                        }
                                    }
                                }
                            }
                            JOINT LeftFinger3
                            {
                                OFFSET   7.899780   0.000015  -1.078090
                                CHANNELS 3 Zrotation Xrotation Yrotation
                                JOINT LeftFinger31
                                {
                                    OFFSET   4.646930   0.000000   0.000000
                                    CHANNELS 3 Zrotation Xrotation Yrotation
                                    JOINT LeftFinger32
                                    {
                                        OFFSET   2.323470   0.000000   0.000000
                                        CHANNELS 3 Zrotation Xrotation Yrotation
                                        End Site
                                        {
                                            OFFSET   2.273050   0.000000   0.000000
                                        }
                                    }
                                }
                            }
                            JOINT LeftFinger4
                            {
                                OFFSET   7.435090   0.000000  -3.252850
                                CHANNELS 3 Zrotation Xrotation Yrotation
                                JOINT LeftFinger41
                                {
                                    OFFSET   3.717550   0.000000   0.000000
                                    CHANNELS 3 Zrotation Xrotation Yrotation
                                    JOINT LeftFinger42
                                    {
                                        OFFSET   1.858770   0.000000   0.000000
                                        CHANNELS 3 Zrotation Xrotation Yrotation
                                        End Site
                                        {
                                            OFFSET   1.818440   0.000000   0.000000
                                        }
                                    }
                                }
                            }
                        }
                    }
                }
            }
            JOINT RightCollar
            {
                OFFSET  -3.911910  19.017000  -0.467062
                CHANNELS 3 Zrotation Xrotation Yrotation
                JOINT RightShoulder
                {
                    OFFSET -10.383700   0.000014   0.000000
                    CHANNELS 3 Zrotation Xrotation Yrotation
                    JOINT RightElbow
                    {
                        OFFSET -26.662100   0.001225   0.001091
                        CHANNELS 3 Zrotation Xrotation Yrotation
                        JOINT RightWrist
                        {
                            OFFSET -28.869000  -0.000020  -0.000085
                            CHANNELS 3 Zrotation Xrotation Yrotation
                            JOINT RightFinger0
                            {
                                OFFSET  -2.044650  -2.323490   3.252850
                                CHANNELS 3 Zrotation Xrotation Yrotation
                                JOINT RightFinger01
                                {
                                    OFFSET  -3.088130   0.000000   0.000000
                                    CHANNELS 3 Zrotation Xrotation Yrotation
                                    JOINT RightFinger02
                                    {
                                        OFFSET  -2.639460   0.000000   0.000000
                                        CHANNELS 3 Zrotation Xrotation Yrotation
                                        End Site
                                        {
                                            OFFSET  -2.582190   0.000000   0.000000
                                        }
                                    }
                                }
                            }
                            JOINT RightFinger1
                            {
                                OFFSET  -8.364480   0.000000   3.252850
                                CHANNELS 3 Zrotation Xrotation Yrotation
                                JOINT RightFinger11
                                {
                                    OFFSET  -4.646930   0.000000   0.000000
                                    CHANNELS 3 Zrotation Xrotation Yrotation
                                    JOINT RightFinger12
                                    {
                                        OFFSET  -2.323470   0.000000   0.000000
                                        CHANNELS 3 Zrotation Xrotation Yrotation
                                        End Site
                                        {
                                            OFFSET  -2.273050   0.000000   0.000000
                                        }
                                    }
                                }
                            }
                            JOINT RightFinger2
                            {
                                OFFSET  -8.364480   0.000000   1.078090
                                CHANNELS 3 Zrotation Xrotation Yrotation
                                JOINT RightFinger21
                                {
                                    OFFSET  -5.111620   0.000000   0.000000
                                    CHANNELS 3 Zrotation Xrotation Yrotation
                                    JOINT RightFinger22
                                    {
                                        OFFSET  -2.788160   0.000000   0.000000
                                        CHANNELS 3 Zrotation Xrotation Yrotation
                                        End Site
                                        {
                                            OFFSET  -2.727660   0.000000   0.000000
                                        }
                                    }
                                }
                            }
                            JOINT RightFinger3
                            {
                                OFFSET  -7.899780   0.000000  -1.078090
                                CHANNELS 3 Zrotation Xrotation Yrotation
                                JOINT RightFinger31
                                {
                                    OFFSET  -4.646930   0.000000   0.000000
                                    CHANNELS 3 Zrotation Xrotation Yrotation
                                    JOINT RightFinger32
                                    {
                                        OFFSET  -2.323470   0.000000   0.000000
                                        CHANNELS 3 Zrotation Xrotation Yrotation
                                        End Site
                                        {
                                            OFFSET  -2.273050   0.000000   0.000000
                                        }
                                    }
                                }
                            }
                            JOINT RightFinger4
                            {
                                OFFSET  -7.435090   0.000000  -3.252850
                                CHANNELS 3 Zrotation Xrotation Yrotation
                                JOINT RightFinger41
                                {
                                    OFFSET  -3.717550   0.000000   0.000000
                                    CHANNELS 3 Zrotation Xrotation Yrotation
                                    JOINT RightFinger42
                                    {
                                        OFFSET  -1.858760   0.000000   0.000000
                                        CHANNELS 3 Zrotation Xrotation Yrotation
                                        End Site
                                        {
                                            OFFSET  -1.818440   0.000000   0.000000
                                        }
                                    }
                                }
                            }
                        }
                    }
                }
            }
        }
    }
    JOINT LeftHip
    {
        OFFSET   9.783030   0.000000   0.000000
        CHANNELS 3 Zrotation Xrotation Yrotation
        JOINT LeftKnee
        {
            OFFSET   0.000063 -41.789100   0.000608
            CHANNELS 3 Zrotation Xrotation Yrotation
            JOINT LeftAnkle
            {
                OFFSET   0.000048 -41.133200  -0.000184
                CHANNELS 3 Zrotation Xrotation Yrotation
                JOINT LeftToe
                {
                    OFFSET   0.000000  -6.358960  14.674500
                    CHANNELS 3 Zrotation Xrotation Yrotation
                    End Site
                    {
                        OFFSET   0.000000   0.000000   3.913200
                    }
                }
            }
        }
    }
    JOINT RightHip
    {
        OFFSET  -9.783030   0.000000   0.000000
        CHANNELS 3 Zrotation Xrotation Yrotation
        JOINT RightKnee
        {
            OFFSET   0.000071 -41.789100   0.001239
            CHANNELS 3 Zrotation Xrotation Yrotation
            JOINT RightAnkle
            {
                OFFSET   0.000037 -41.133200  -0.000166
                CHANNELS 3 Zrotation Xrotation Yrotation
                JOINT RightToe
                {
                    OFFSET   0.000000  -6.358960  14.674500
                    CHANNELS 3 Zrotation Xrotation Yrotation
                    End Site
                    {
                        OFFSET   0.000000   0.000000   3.913200
                    }
                }
            }
        }
    }
}
MOTION
Frames: 4
Frame Time:   0.016667
  0.057809  89.524400   3.381890  -4.200910 -19.219800  -1.530050   1.750300  10.070000   1.923920   3.226950  20.190000   3.615120   5.909260   0.545241  -0.050247   9.710190   1.070280  -0.178183  -7.717350  -6.536390   0.791499 -73.822100  21.498400  -2.647180  -1.674660  -6.576010 -13.065400  16.436300  -5.001730   6.759530  35.916100  27.840000 -53.586000 -34.585800   0.000399   0.002115 -12.292900   0.000746  -0.003239 -31.741000   7.099250 -11.298100 -26.545200   0.008481  -0.001156 -18.581700   0.000659  -0.009872 -28.711300  -0.125508   0.229229 -39.192500  -0.000072  -0.002337 -26.102200   0.004221  -0.004302 -28.665500  -0.125336   0.229323 -38.383200   0.000921  -0.002330 -25.563200   0.007088  -0.010953 -33.470300  -0.144109   0.218015 -50.206000   0.001040   0.000193 -33.437200   0.001413  -0.009164  10.508900  -3.726830  11.664200  32.431600   5.592490  60.246200 -39.315000  -7.633850  37.371700  39.322700  25.537400 -11.104600 -41.702500  35.241900  68.200600  28.815100   0.000871  -0.000581   9.407550  -0.008489  -0.002525  19.870900   6.146290  16.500400  16.987300  -0.003793   0.000781  11.891100  -0.000117   0.000723  20.439400   0.519485   1.392030  20.445200  -0.000240  -0.000553  13.616500   0.002096   0.000991  19.772700  -2.345150  -6.497190  19.905100  -0.005743  -0.000582  13.256800   0.007030  -0.000364  25.263500  -2.957810  -6.242880  38.136200  -0.000508  -0.001384  25.398700  -0.001763   0.000929   3.136940  21.931000   2.764530   1.270220   0.018297   2.834240  -1.359670  -3.837630  -2.022860   0.000000   0.000000   0.000000   5.337110  20.738900  -1.712660  -1.172460   3.326160  -4.840690  -0.484382  -5.625600   1.129800  -0.000000   0.000000  -0.000000
  0.057041  89.529900   3.333670  -4.196770 -19.147300  -1.562260   1.733410  10.042700   1.909870   3.195580  20.134500   3.589940   5.958200   0.542552  -0.049892   9.790550   1.064490  -0.228206  -7.715540  -6.509430   0.786357 -73.808400  21.439800  -2.597130  -1.694250  -6.610450 -13.006700  16.421500  -4.981570   6.750850  35.922900  27.855600 -53.708000 -34.563400   0.000389   0.001996 -12.281700   0.000728  -0.003228 -31.736000   7.159860 -11.393700 -26.550300   0.008487  -0.001135 -18.585200   0.000653  -0.009870 -28.711700  -0.071140   0.129948 -39.213700  -0.000088  -0.002300 -26.116300   0.004181  -0.004307 -28.665900  -0.071040   0.130002 -38.386600   0.000881  -0.002293 -25.565400   0.007099  -0.010931 -33.470800  -0.081670   0.123588 -50.206200   0.000994   0.000180 -33.437300   0.001369  -0.009193  10.491900  -3.732520  11.622700  32.447500   5.912260  59.903500 -39.059100  -7.235780  37.167600  38.883800  25.102700 -10.748000 -41.839200  35.221100  68.013600  28.709200   0.000869  -0.000493   9.354580  -0.008488  -0.002533  19.739200   6.175630  16.709800  16.890200  -0.003790   0.000695  11.823100  -0.000119   0.000699  20.412800   0.588233   1.581770  20.419700  -0.000115  -0.000474  13.599500   0.002243   0.000990  19.651100  -2.225760  -6.208250  19.773100  -0.005726  -0.000555  13.168900   0.006797  -0.000340  25.068500  -2.804930  -5.969610  37.824700  -0.000564  -0.001357  25.191300  -0.001651   0.000867   3.124260  21.846000   2.771500   1.263490   0.004724   2.811980  -1.355770  -3.808600  -1.971610   0.000000   0.000000   0.000000   5.284810  20.614200  -1.689710  -1.142680   3.349840  -4.792920  -0.489472  -5.605910   1.117540   0.000000   0.000000   0.000000
  0.056871  89.536100   3.280130  -4.197210 -19.071700  -1.603130   1.719090  10.016700   1.892810   3.169990  20.081700   3.558100   5.996660   0.532839  -0.049438   9.853680   1.044790  -0.285954  -7.714850  -6.483270   0.779305 -73.791000  21.388800  -2.559130  -1.709680  -6.618120 -12.990700  16.406000  -4.968090   6.727620  35.940500  27.882400 -53.823600 -34.532000   0.000374   0.001878 -12.266000   0.000705  -0.003220 -31.736300   7.212190 -11.474300 -26.559800   0.008493  -0.001117 -18.591800   0.000649  -0.009866 -28.711900  -0.019062   0.034851 -39.239700  -0.000099  -0.002263 -26.133600   0.004135  -0.004316 -28.666200  -0.019034   0.034866 -38.400300   0.000841  -0.002256 -25.574600   0.007111  -0.010910 -33.471700  -0.021903   0.033110 -50.207600   0.000949   0.000166 -33.438300   0.001326  -0.009222  10.483000  -3.740070  11.586200  32.516200   6.237350  59.535600 -38.760900  -6.725830  36.927100  38.027000  24.652000 -10.097200 -41.868100  35.235800  67.895400  28.693700   0.000865  -0.000397   9.346830  -0.008486  -0.002541  19.678400   6.221250  16.856300  16.855400  -0.003787   0.000591  11.798800  -0.000121   0.000659  20.406300   0.644115   1.729240  20.416000   0.000000  -0.000405  13.597100   0.002396   0.000986  19.606400  -2.128670  -5.954150  19.716600  -0.005702  -0.000534  13.131200   0.006556  -0.000327  24.978000  -2.678240  -5.728630  37.667200  -0.000628  -0.001345  25.086400  -0.001558   0.000798   3.112640  21.751000   2.778270   1.259320   0.002485   2.799270  -1.353450  -3.784160  -1.920650  -0.000000   0.000000   0.000000   5.238430  20.475600  -1.648470  -1.109390   3.393890  -4.754450  -0.494644  -5.586730   1.095740  -0.000000   0.000000   0.000000
  0.057171  89.542400   3.224550  -4.201540 -19.001100  -1.649340   1.708830   9.996130   1.871220   3.153440  20.039700   3.516120   6.016390   0.515012  -0.049117   9.885910   1.009800  -0.347106  -7.711020  -6.466680   0.776736 -73.775700  21.368700  -2.532220  -1.719130  -6.612500 -13.028900  16.387800  -4.961770   6.688280  35.963000  27.904800 -53.900200 -34.494000   0.000359   0.001744 -12.247000   0.000680  -0.003204 -31.738000   7.261130 -11.549000 -26.569100   0.008498  -0.001103 -18.598400   0.000641  -0.009863 -28.712000   0.022359  -0.040783 -39.264700  -0.000114  -0.002227 -26.150200   0.004093  -0.004325 -28.666800   0.022328  -0.040801 -38.428000   0.000804  -0.002221 -25.593100   0.007122  -0.010888 -33.483600   0.025634  -0.038851 -50.225600   0.000903   0.000149 -33.450300   0.001284  -0.009250  10.484800  -3.743020  11.556200  32.643800   6.558380  59.159000 -38.429300  -6.198770  36.688900  36.900600  24.273300  -9.369140 -42.010400  35.416800  67.898500  28.694600   0.000859  -0.000386   9.347270  -0.008489  -0.002539  19.778800   6.283620  16.898200  16.949500  -0.003789   0.000466  11.864700  -0.000120   0.000606  20.541700   0.673012   1.794750  20.552600   0.000073  -0.000336  13.688100   0.002585   0.000967  19.678900  -2.076250  -5.787470  19.781400  -0.005674  -0.000514  13.174400   0.006299  -0.000326  25.021600  -2.606820  -5.569540  37.718300  -0.000706  -0.001345  25.120400  -0.001490   0.000721   3.100220  21.655200   2.774960   1.260090   0.010178   2.807740  -1.353560  -3.763330  -1.875390   0.000000   0.000000   0.000000   5.206840  20.335300  -1.580840  -1.079180   3.440570  -4.747950  -0.499619  -5.567540   1.075330  -0.000000   0.000000  -0.000000
